<svg xmlns="http://www.w3.org/2000/svg" width="100" height="100" viewBox="0 0 100 100">
  <g id="assessment" transform="translate(-2 -2)">
    <path id="Path_8" data-name="Path 8" d="M31.852,35.108C27.71,38.283,23,41.893,23,51H33c0-5.477,3.555-8.583,7.2-11.772C44.05,35.866,48,32.415,48,26A20,20,0,1,0,8,26H18a10,10,0,1,1,20,0C38,30.4,35.1,32.618,31.852,35.108ZM33,68.5v-10H23v10Z" transform="translate(24 16)" fill="#9f4bf8" fill-rule="evenodd"/>
    <path id="Path_9" data-name="Path 9" d="M52,102A50,50,0,1,0,2,52,50,50,0,0,0,52,102Zm0-10A40,40,0,1,0,12,52,40,40,0,0,0,52,92Z" fill="#9f4bf8" fill-rule="evenodd"/>
  </g>
</svg>
