<svg xmlns="http://www.w3.org/2000/svg" width="100" height="100" viewBox="0 0 100 100">
  <g id="assignment" transform="translate(-2 -2)">
    <path id="Path_4" data-name="Path 4" d="M102,14.5a9.552,9.552,0,0,0-6.075-8.818A10.06,10.06,0,0,0,85.2,7.75L71.552,20.95l-18.8-18.2A2.477,2.477,0,0,0,51.614,2H9.728A7.617,7.617,0,0,0,2,9.5v85A7.617,7.617,0,0,0,9.728,102H66.4a7.617,7.617,0,0,0,7.728-7.5V45.55l15.147-14.7a7.97,7.97,0,0,1-1.494,9.4L85.2,42.75a2.352,2.352,0,0,0,0,3.5,2.525,2.525,0,0,0,3.606,0l2.576-2.5A12.766,12.766,0,0,0,93.036,27l6.079-5.95A9.366,9.366,0,0,0,102,14.5ZM69.749,42.75h0L45.792,65.95,39.146,59.5,79.28,20.55,85.926,27ZM34.1,77.3,24.1,80.55l3.349-9.7,8.037-7.8,6.646,6.45ZM53.52,10.55,65.318,22H53.52ZM68.976,94.5A2.539,2.539,0,0,1,66.4,97H9.728a2.539,2.539,0,0,1-2.576-2.5V9.5A2.539,2.539,0,0,1,9.728,7h38.64V24.5A2.539,2.539,0,0,0,50.944,27H65.318L23.381,67.75a1.944,1.944,0,0,0-.618.95l-5.152,15a2.351,2.351,0,0,0,.618,2.55,2.457,2.457,0,0,0,1.8.75,2.388,2.388,0,0,0,.824,0l15.456-5a2.018,2.018,0,0,0,.979-.6L68.976,50.55ZM95.508,17.75l-5.925,5.7L82.938,17l5.873-5.75a4.844,4.844,0,0,1,6.564.13,4.5,4.5,0,0,1,.134,6.37Z" fill="#9f4bf8"/>
    <path id="Path_5" data-name="Path 5" d="M7.576,10H23.032a2.539,2.539,0,0,0,2.576-2.5A2.539,2.539,0,0,0,23.032,5H7.576A2.539,2.539,0,0,0,5,7.5,2.539,2.539,0,0,0,7.576,10Z" transform="translate(12.456 12)" fill="#9f4bf8"/>
    <path id="Path_6" data-name="Path 6" d="M7.576,13H28.184a2.5,2.5,0,1,0,0-5H7.576a2.5,2.5,0,1,0,0,5Z" transform="translate(12.456 24)" fill="#9f4bf8"/>
    <path id="Path_7" data-name="Path 7" d="M7.576,16h5.152a2.5,2.5,0,1,0,0-5H7.576a2.5,2.5,0,1,0,0,5Z" transform="translate(12.456 36)" fill="#9f4bf8"/>
  </g>
</svg>
