<svg xmlns="http://www.w3.org/2000/svg" width="100" height="100" viewBox="0 0 100 100">
  <path id="presentation" d="M55.354,4.239a4.545,4.545,0,0,0-8.707,0l-1.755,5.852H14.636A13.636,13.636,0,0,0,1,23.727V69.181A13.636,13.636,0,0,0,14.636,82.817h8.436l-3.7,12.33a4.545,4.545,0,0,0,8.708,2.612l4.483-14.942H69.436l4.483,14.942a4.545,4.545,0,0,0,8.707-2.612l-3.7-12.33h8.436A13.636,13.636,0,0,0,101,69.181V23.727A13.636,13.636,0,0,0,87.364,10.091H57.109ZM10.091,23.727a4.545,4.545,0,0,1,4.545-4.545H87.364a4.545,4.545,0,0,1,4.545,4.545V69.181a4.545,4.545,0,0,1-4.545,4.545H14.636a4.545,4.545,0,0,1-4.545-4.545ZM45.975,27.5a9.091,9.091,0,0,0-13.156,8.131V57.281a9.091,9.091,0,0,0,13.156,8.131L67.629,54.585a9.091,9.091,0,0,0,0-16.262Zm-4.065,8.131L63.563,46.454,41.909,57.281Z" transform="translate(-1 -1)" fill="#9f4bf8" fill-rule="evenodd"/>
</svg>
