<svg id="taskCreateSmiley" xmlns="http://www.w3.org/2000/svg" width="37" height="37" viewBox="0 0 37 37">
  <path id="Path_6" data-name="Path 6" d="M18.5,2.313A16.088,16.088,0,0,1,34.688,18.5,16.088,16.088,0,0,1,18.5,34.688,16.088,16.088,0,0,1,2.313,18.5,16.088,16.088,0,0,1,18.5,2.313ZM18.5,0A18.5,18.5,0,1,0,37,18.5,18.554,18.554,0,0,0,18.5,0Z" fill="#d9d9d9"/>
  <path id="Path_7" data-name="Path 7" d="M14.038,17.794A11.533,11.533,0,0,1,3.4,10.625L5.481,9.7a9.1,9.1,0,0,0,8.556,5.55A9.467,9.467,0,0,0,22.594,9.7l2.081.925a11.191,11.191,0,0,1-10.638,7.169Z" transform="translate(4.463 12.731)" fill="#d9d9d9"/>
  <path id="Path_8" data-name="Path 8" d="M9.625,7.313A2.313,2.313,0,1,1,7.313,5,2.313,2.313,0,0,1,9.625,7.313Z" transform="translate(6.563 6.563)" fill="#d9d9d9"/>
  <path id="Path_9" data-name="Path 9" d="M13.625,7.313A2.313,2.313,0,1,1,11.313,5,2.313,2.313,0,0,1,13.625,7.313Z" transform="translate(11.813 6.563)" fill="#d9d9d9"/>
</svg>
