<svg xmlns="http://www.w3.org/2000/svg" width="35" height="37" viewBox="0 0 35 37">
  <g id="taskCreateAdd" transform="translate(-393 -270)">
    <g id="Path_4" data-name="Path 4" transform="translate(397.738 270)" fill="none">
      <path d="M1.891,0H28.371a1.9,1.9,0,0,1,1.891,1.9V31.312a1.9,1.9,0,0,1-1.891,1.9H1.891A1.9,1.9,0,0,1,0,31.312V1.9A1.9,1.9,0,0,1,1.891,0Z" stroke="none"/>
      <path d="M 2 1.999996185302734 L 2 31.20953750610352 L 28.26191902160645 31.20953750610352 L 28.26191902160645 1.999996185302734 L 2 1.999996185302734 M 1.891368865966797 -3.814697265625e-06 L 28.37055015563965 -3.814697265625e-06 C 29.41511917114258 -3.814697265625e-06 30.26191902160645 0.8496284484863281 30.26191902160645 1.897686004638672 L 30.26191902160645 31.31184768676758 C 30.26191902160645 32.35990524291992 29.41511917114258 33.20953750610352 28.37055015563965 33.20953750610352 L 1.891368865966797 33.20953750610352 C 0.8467998504638672 33.20953750610352 0 32.35990524291992 0 31.31184768676758 L 0 1.897686004638672 C 0 0.8496284484863281 0.8467998504638672 -3.814697265625e-06 1.891368865966797 -3.814697265625e-06 Z" stroke="none" fill="#d9d9d9"/>
    </g>
    <g id="Group_1" data-name="Group 1" transform="translate(393 273.79)">
      <g id="Path_3" data-name="Path 3" transform="translate(0)" fill="#fff">
        <path d="M 28.37055015563965 32.20953750610352 L 1.891369462013245 32.20953750610352 C 1.399869561195374 32.20953750610352 0.9999995231628418 31.80683708190918 0.9999995231628418 31.31184768676758 L 0.9999995231628418 1.897686839103699 C 0.9999995231628418 1.402696847915649 1.399869561195374 0.9999968409538269 1.891369462013245 0.9999968409538269 L 28.37055015563965 0.9999968409538269 C 28.8620491027832 0.9999968409538269 29.26191902160645 1.402696847915649 29.26191902160645 1.897686839103699 L 29.26191902160645 31.31184768676758 C 29.26191902160645 31.80683708190918 28.8620491027832 32.20953750610352 28.37055015563965 32.20953750610352 Z" stroke="none"/>
        <path d="M 2 1.999996185302734 L 2 31.20953750610352 L 28.26191902160645 31.20953750610352 L 28.26191902160645 1.999996185302734 L 2 1.999996185302734 M 1.891368865966797 -3.814697265625e-06 L 28.37055015563965 -3.814697265625e-06 C 29.41511917114258 -3.814697265625e-06 30.26191902160645 0.8496284484863281 30.26191902160645 1.897686004638672 L 30.26191902160645 31.31184768676758 C 30.26191902160645 32.35990524291992 29.41511917114258 33.20953750610352 28.37055015563965 33.20953750610352 L 1.891368865966797 33.20953750610352 C 0.8467998504638672 33.20953750610352 0 32.35990524291992 0 31.31184768676758 L 0 1.897686004638672 C 0 0.8496284484863281 0.8467998504638672 -3.814697265625e-06 1.891368865966797 -3.814697265625e-06 Z" stroke="none" fill="#d9d9d9"/>
      </g>
      <path id="Path_2" data-name="Path 2" d="M27.891,18.445H18.445m0,0H9m9.445,0V9m0,9.445v9.445" transform="translate(-2.84 -1.893)" fill="none" stroke="#d9d9d9" stroke-linecap="round" stroke-width="2"/>
    </g>
  </g>
</svg>
