<svg xmlns="http://www.w3.org/2000/svg" width="22.769" height="37" viewBox="0 0 22.769 37">
  <path id="taskCreateClip" d="M14.894,5.1a6.263,6.263,0,0,0-6.048,6.459V27.318A8.825,8.825,0,0,0,17.385,36.4a8.825,8.825,0,0,0,8.538-9.086V11.555h2.846V27.318c0,6.517-5.026,11.932-11.385,11.932S6,33.835,6,27.318V11.555a9.107,9.107,0,0,1,8.894-9.3,9.107,9.107,0,0,1,8.894,9.3V27.318A6.545,6.545,0,0,1,17.385,34a6.545,6.545,0,0,1-6.4-6.678V11.555h2.846V27.318a3.7,3.7,0,0,0,3.558,3.831,3.7,3.7,0,0,0,3.558-3.831V11.555A6.263,6.263,0,0,0,14.894,5.1Z" transform="translate(-6 -2.25)" fill="#d9d9d9" fill-rule="evenodd"/>
</svg>
